<svg xmlns="http://www.w3.org/2000/svg" width="120" height="120" viewBox="0 0 120 120">
  <!-- Left timeline with waveform -->
  <g transform="translate(15, 50)">
    <!-- Past timeline base -->
    <line x1="0" y1="10" x2="40" y2="10" stroke="#FF6D00" stroke-width="4" stroke-linecap="round"/>
    
    <!-- Past waveform segments -->
    <g stroke="#FF6D00" stroke-width="3" stroke-linecap="round">
      <line x1="5" y1="5" x2="5" y2="15"/>
      <line x1="12" y1="2" x2="12" y2="18"/>
      <line x1="19" y1="0" x2="19" y2="20"/>
      <line x1="26" y1="3" x2="26" y2="17"/>
      <line x1="33" y1="6" x2="33" y2="14"/>
    </g>
  </g>
  
  <!-- Center playhead -->
  <line x1="60" y1="40" x2="60" y2="80" stroke="#FF6D00" stroke-width="5" stroke-linecap="round"/>
  
  <!-- Playhead indicator -->
  <circle cx="60" cy="60" r="4" fill="#FF6D00"/>
  
  <!-- Right timeline with waveform -->
  <g transform="translate(65, 50)">
    <!-- Future timeline base -->
    <line x1="0" y1="10" x2="40" y2="10" stroke="#FF6D00" stroke-width="4" stroke-linecap="round"/>
    
    <!-- Future waveform segments -->
    <g stroke="#FF6D00" stroke-width="3" stroke-linecap="round">
      <line x1="2" y1="8" x2="2" y2="12"/>
      <line x1="9" y1="6" x2="9" y2="14"/>
      <line x1="16" y1="4" x2="16" y2="16"/>
      <line x1="23" y1="7" x2="23" y2="13"/>
      <line x1="30" y1="9" x2="30" y2="11"/>
      <line x1="37" y1="8" x2="37" y2="12"/>
    </g>
  </g>
</svg>
